<svg width="30" height="30" viewBox="0 0 30 30" fill="none" xmlns="http://www.w3.org/2000/svg">
<g clip-path="url(#clip0_288_618)">
<path d="M15 13.0125L20 8.0125L18.2375 6.25L15 9.4875V5H12.5V9.4875L9.2625 6.25L7.5 8.0125L12.5 13.0125V15H10.5125L5.5125 10L3.75 11.7625L6.9875 15H2.5V17.5H6.9875L3.75 20.7375L5.5125 22.5L10.5125 17.5H12.5V19.4875L7.5 24.4875L9.2625 26.25L12.5 23.0125V27.5H15V23.0125L18.2375 26.25L20 24.4875L15 19.4875V17.5H16.9875L21.9875 22.5L23.75 20.7375L20.5125 17.5H25V15H15V13.0125Z" fill="#0A0A25"/>
<path d="M26.25 2.5H23.75V8.75H26.25V2.5Z" fill="#0A0A25"/>
<path d="M26.25 10H23.75V12.5H26.25V10Z" fill="#0A0A25"/>
</g>
<defs>
<clipPath id="clip0_288_618">
<rect width="30" height="30" fill="white"/>
</clipPath>
</defs>
</svg>