<svg width="26" height="17" viewBox="0 0 26 17" fill="none" xmlns="http://www.w3.org/2000/svg">
<path d="M17.9135 7.20504C19.8261 7.20504 21.3585 5.66112 21.3585 3.74851C21.3585 1.83591 19.8261 0.291992 17.9135 0.291992C16.0009 0.291992 14.4569 1.83591 14.4569 3.74851C14.4569 5.66112 16.0009 7.20504 17.9135 7.20504ZM8.69608 7.20504C10.6087 7.20504 12.1411 5.66112 12.1411 3.74851C12.1411 1.83591 10.6087 0.291992 8.69608 0.291992C6.78347 0.291992 5.23955 1.83591 5.23955 3.74851C5.23955 5.66112 6.78347 7.20504 8.69608 7.20504ZM8.69608 9.50938C6.01151 9.50938 0.630859 10.8574 0.630859 13.542V16.4224H16.7613V13.542C16.7613 10.8574 11.3806 9.50938 8.69608 9.50938ZM17.9135 9.50938C17.5793 9.50938 17.1991 9.53243 16.7959 9.56699C18.1324 10.5348 19.0656 11.8368 19.0656 13.542V16.4224H25.9787V13.542C25.9787 10.8574 20.598 9.50938 17.9135 9.50938Z" fill="#333333"/>
</svg>